# xmcd CD database file
#
# Track frame offsets:
#	187
#	20612
#	41887
#	60752
#	78952
#	94847
#	115275
#	135825
#	154850
#	174492
#	192950
#	213512
#
# Disc length: 3104 seconds
#
# Revision: 0
# Processed by: cddbd v1.5PL3 Copyright (c) Steve Scherf et al.
# Submitted via: CDex 1.50beta10
#
DISCID=970c1e0c
DTITLE=森進一 - 森進一セレクション
DYEAR=1992
DGENRE=Other
TTITLE0=愛しい人よ
TTITLE1=フィクション
TTITLE2=イエスタデイ
TTITLE3=夜間飛行
TTITLE4=サマータイム(Summertime)
TTITLE5=千年純情
TTITLE6=冬のリヴィエラ
TTITLE7=紐育物語
TTITLE8=モロッコ
TTITLE9=甘ったれ
TTITLE10=夢・ステファニー（ロマンティック・トリップ）
TTITLE11=襟裳岬
EXTD=YEAR: 1992
EXTT0=
EXTT1=
EXTT2=
EXTT3=
EXTT4=
EXTT5=
EXTT6=
EXTT7=
EXTT8=
EXTT9=
EXTT10=
EXTT11=
PLAYORDER=
